<?xml version="1.0" encoding="UTF-8"?>
<svg width="375px" height="244px" viewBox="0 0 375 244" version="1.1" xmlns="http://www.w3.org/2000/svg" xmlns:xlink="http://www.w3.org/1999/xlink">
    <!-- Generator: Sketch 52.5 (67469) - http://www.bohemiancoding.com/sketch -->
    <title>pic_detail_redpacket</title>
    <desc>Created with Sketch.</desc>
    <g id="xwallet_8" stroke="none" stroke-width="1" fill="none" fill-rule="evenodd" opacity="0.0799999982">
        <g id="红包-我的记录" stroke="#FFEA55">
            <g id="pic_detail_redpacket">
                <g id="Group-21" transform="translate(268.532279, 83.795427) rotate(-50.000000) translate(-268.532279, -83.795427) translate(-151.967721, 14.295427)">
                    <path d="M1.05061782,119.60941 C4.76693226,119.60941 49.3639809,14.8589722 133.596616,9.53168559 C229.54189,3.46311654 347.14356,128.960607 464.211291,128.960607 C576.942896,128.960607 691.322655,8.59690657 839.050618,0.960606811" id="Stroke-1" stroke-width="2"></path>
                    <path d="M839.693405,1.72665125 C707.966595,8.54556902 603.485531,128.933723 492.744291,129.722864 C378.026995,130.520218 258.816708,5.14124332 160.5244,10.5598293 C73.1251181,15.3165771 21.4112975,120.520097 1.69340543,121.372205" id="Stroke-3" stroke-width="1.833"></path>
                    <path d="M839.706657,6.13175361 C723.980999,12.0786382 629.399054,131.545671 520.648181,133.116636 C408.280895,134.706019 287.461565,10.4333199 186.822223,15.1584942 C96.2567195,19.3072614 37.4257018,124.135599 1.70665715,125.834806" id="Stroke-5" stroke-width="1.667"></path>
                    <path d="M840.349445,6.89779805 C740.625365,12.0174858 655.942113,131.495595 549.181182,133.863588 C439.163905,136.258303 316.736383,12.1202633 213.750007,16.1895654 C120.017857,19.7607395 54.069642,125.033634 2.34944476,127.593478" id="Stroke-7" stroke-width="1.5"></path>
                    <path d="M838.940613,6.77454122 C755.21811,11.0600896 680.433127,130.542719 575.662988,133.713351 C467.995721,136.921146 343.959582,12.925855 238.626171,16.3318577 C141.727374,19.3214871 68.6623876,125.038333 0.940612705,128.466358" id="Stroke-9" stroke-width="1.333"></path>
                    <path d="M839.200378,8.36197947 C771.478603,11.7779111 706.592739,130.317117 603.813391,134.266595 C498.49656,138.262021 372.850528,15.3954657 265.170933,18.1098318 C165.105489,20.4929602 84.9233056,125.813519 1.20037809,130.083262" id="Stroke-11" stroke-width="1.167"></path>
                    <path d="M839.077121,9.77081152 C787.356924,12.3440593 732.369754,130.872565 631.580347,135.63266 C528.613951,140.448546 401.359301,17.7412676 291.332247,19.7862282 C188.100157,21.5811649 100.801201,127.335038 1.07712126,132.481534" id="Stroke-13"></path>
                    <path d="M839.979674,12.1242942 C804.261055,13.8330296 759.172153,131.402945 660.373538,136.936777 C559.756727,142.533743 430.89346,20.9692301 318.519797,22.3272973 C212.121059,23.5192946 117.705332,128.861115 1.97967426,134.843748" id="Stroke-15" stroke-width="0.833"></path>
                    <path d="M839.979674,12.1242942 C820.262207,12.9822976 785.072425,130.528076 688.263751,136.877991 C589.997375,143.302334 459.52549,21.913803 344.805218,22.5953817 C235.239409,23.1942611 133.706485,128.961617 1.97967426,135.827023" id="Stroke-17" stroke-width="0.667"></path>
                    <path d="M839.473395,14.3545201 C835.757081,14.3545201 810.465992,130.926467 715.64811,138.04363 C619.731744,145.243176 487.650816,25.010012 370.58351,25.010012 C257.85148,25.010012 149.201783,130.349103 1.4733952,138.04363" id="Stroke-19" stroke-width="0.5"></path>
                </g>
            </g>
        </g>
    </g>
</svg>