<?xml version="1.0" encoding="UTF-8"?>
<svg width="22px" height="14px" viewBox="0 0 22 14" version="1.1" xmlns="http://www.w3.org/2000/svg" xmlns:xlink="http://www.w3.org/1999/xlink">
    <!-- Generator: Sketch 52.5 (67469) - http://www.bohemiancoding.com/sketch -->
    <title>ic_luckiest_draw</title>
    <desc>Created with Sketch.</desc>
    <defs>
        <linearGradient x1="6.74980475%" y1="-7.63763342%" x2="74.4344859%" y2="111.627306%" id="linearGradient-1">
            <stop stop-color="#FAD961" offset="0%"></stop>
            <stop stop-color="#F76B1C" offset="100%"></stop>
        </linearGradient>
    </defs>
    <g id="xwallet_8" stroke="none" stroke-width="1" fill="none" fill-rule="evenodd">
        <g id="红包-拆后-copy-12" transform="translate(-139.000000, -413.000000)">
            <g id="Group-5" transform="translate(0.000000, 391.000000)">
                <g id="Group-7" transform="translate(16.000000, 0.000000)">
                    <g id="Group-3" transform="translate(0.000000, 3.000000)">
                        <g id="Group-14-Copy" transform="translate(40.000000, 19.000000)">
                            <g id="Group-13" transform="translate(83.000000, 0.000000)">
                                <path d="M19.9937101,2.27753305 L17.4166667,11.9166667 C13.2699905,13.4156706 8.72957546,13.4168722 4.58210651,11.9200632 L4.57269506,11.9166667 L2.02332137,2.24716469 C1.91773429,2.28454524 1.80409133,2.30488782 1.68569712,2.30488782 C1.12710623,2.30488782 0.674278846,1.85206044 0.674278846,1.29346955 C0.674278846,0.734878666 1.12710623,0.282051282 1.68569712,0.282051282 C2.244288,0.282051282 2.69711538,0.734878666 2.69711538,1.29346955 C2.69711538,1.57982299 2.57811461,1.83838231 2.38686881,2.02239175 L5.81973497,5.097394 C6.16157993,5.40360285 6.67718948,5.40982084 7.02631941,5.1119448 L10.5206551,2.13059364 C10.2529095,1.94863641 10.0770324,1.64159213 10.0770324,1.29346955 C10.0770324,0.734878666 10.5298598,0.282051282 11.0884507,0.282051282 C11.6470416,0.282051282 12.0998689,0.734878666 12.0998689,1.29346955 C12.0998689,1.63918572 11.9264149,1.94438953 11.6617855,2.12680238 L14.9795849,5.09243416 C15.324439,5.40068371 15.8449138,5.40372436 16.1933458,5.09952504 L19.6238935,2.10447825 C19.376864,1.92006767 19.2169223,1.6254468 19.2169223,1.29346955 C19.2169223,0.734878666 19.6697497,0.282051282 20.2283406,0.282051282 C20.7869315,0.282051282 21.2397589,0.734878666 21.2397589,1.29346955 C21.2397589,1.85206044 20.7869315,2.30488782 20.2283406,2.30488782 C20.1475693,2.30488782 20.0690094,2.2954198 19.9937101,2.27753305 Z" id="Path" fill="url(#linearGradient-1)"></path>
                                <path d="M3.4651412,9.16666667 L3.4651412,9.16666667 C8.41000482,10.3897987 13.5780762,10.3926152 18.5242701,9.17487355 L18.5576046,9.16666667 L18.5222448,9.63820395 L18.5012108,9.6439511 C13.5675673,10.9919797 8.36239546,10.9899949 3.42978141,9.63820395 L3.4651412,9.16666667 Z" id="Rectangle-Copy-13" fill="#FFFFFF"></path>
                                <circle id="Oval" fill="#FFFFFF" cx="4.19551282" cy="6.875" r="1"></circle>
                                <path d="M10.9830271,7.45086231 C11.314044,7.45086231 11.5823861,7.18252015 11.5823861,6.85150333 C11.5823861,6.52048651 11.314044,6.25214436 10.9830271,6.25214436 C10.6520103,6.25214436 10.3836682,6.52048651 10.3836682,6.85150333 C10.3836682,7.18252015 10.6520103,7.45086231 10.9830271,7.45086231 Z" id="Oval-Copy-5" fill="#FFFFFF"></path>
                                <circle id="Oval-Copy-6" fill="#FFFFFF" cx="17.3814103" cy="6.875" r="1"></circle>
                            </g>
                        </g>
                    </g>
                </g>
            </g>
        </g>
    </g>
</svg>