<?xml version="1.0" encoding="UTF-8"?>
<svg width="99px" height="36px" viewBox="0 0 99 36" version="1.1" xmlns="http://www.w3.org/2000/svg" xmlns:xlink="http://www.w3.org/1999/xlink">
    <!-- Generator: Sketch 52.5 (67469) - http://www.bohemiancoding.com/sketch -->
    <title>pic_logo_red_redpacket</title>
    <desc>Created with Sketch.</desc>
    <g id="xwallet_8" stroke="none" stroke-width="1" fill="none" fill-rule="evenodd">
        <g id="红包-拆后-个人" transform="translate(-138.000000, -466.000000)" fill="#E2412E">
            <g id="pic_logo_red_redpacket" transform="translate(138.000000, 466.000000)">
                <path d="M73.6186632,34.5068052 L73.6186632,34.8057662 L69.8181818,34.8057662 L69.8181818,14.7359481 L69.8181818,10.9090909 L77.5126789,10.9090909 C84.0451687,10.9090909 89.3605633,16.2028052 89.3605633,22.7062338 C89.3605633,29.2153766 84.0451687,34.5068052 77.5126789,34.5068052 L73.6186632,34.5068052 Z M73.6186632,30.6822338 L77.5126789,30.6822338 C81.9271592,30.6822338 85.5176185,27.1010909 85.5176185,22.7062338 C85.5176185,18.3085195 81.9271592,14.7359481 77.5126789,14.7359481 L73.6186632,14.7359481 L73.6186632,30.6822338 Z M46.3436406,10.9300408 L61.0909091,28.9362512 L61.0909091,10.9090909 L64.8890951,10.9090909 L64.8890951,34.5159481 L61.0909091,34.5159481 L61.0909091,34.1359213 L60.7497194,34.4742338 L46.3436406,16.8805454 L46.3436406,34.5159481 L42.5454545,34.5159481 L42.5454545,10.9090909 L46.3436406,10.9090909 L46.3436406,10.9300408 Z M1.09090909,12 L1.09090909,10.9090909 L7.41854125,10.9090909 C12.8406684,10.9090909 17.2528534,15.3022338 17.2528534,20.7016623 C17.2528534,26.1010909 12.8406684,30.4942338 7.41854125,30.4942338 L3.27272727,30.4942338 L3.27272727,36 L-1.70530257e-13,36 L-1.70530257e-13,12 L1.09090909,12 Z M3.27272727,14.6936623 L3.27272727,26.7142338 L7.41854125,26.7142338 C10.7490552,26.7142338 13.455815,24.0119481 13.455815,20.7016623 C13.455815,17.3908052 10.7490552,14.6936623 7.41854125,14.6936623 L3.27272727,14.6936623 Z M29.2049921,35.1079481 C23.9309133,35.1079481 19.6363636,30.8342338 19.6363636,25.5810909 L19.6363636,10.9405195 L23.4345497,10.9405195 L23.4345497,25.5810909 C23.4345497,28.7450909 26.0219527,31.3233766 29.2049921,31.3233766 C32.3880315,31.3233766 34.9714178,28.7450909 34.9714178,25.5810909 L34.9714178,10.9090909 L38.7696038,10.9090909 L38.7696038,25.5810909 C38.7696038,30.8342338 34.4796448,35.1079481 29.2049921,35.1079481 Z M91.6363636,34.4868052 L91.6363636,10.9090909 L95.433402,10.9090909 L95.433402,34.4868052 L91.6363636,34.4868052 Z M87.2727273,1.47371429 L88.7526369,6.57252031e-14 L92.3568681,3.58914286 L90.8769585,5.06285714 L87.2727273,1.47371429 Z M93.8181818,6.92825974 L95.2975176,5.45454545 L98.9023226,9.04368831 L97.422413,10.5174026 L93.8181818,6.92825974 Z M91.596152,5.27648864 L93.0754878,3.80277436 L94.5565451,5.27706007 L93.0766354,6.75134579 L91.596152,5.27648864 Z M97.422413,6.48370246e-14 L98.9023226,1.47371429 L95.2980914,5.06285714 L93.8181818,3.58914286 L97.422413,6.48370246e-14 Z M90.8769585,5.45454545 L92.3568681,6.92825974 L88.7526369,10.5174026 L87.2727273,9.04368831 L90.8769585,5.45454545 Z" id="Combined-Shape"></path>
            </g>
        </g>
    </g>
</svg>