<?xml version="1.0" encoding="UTF-8"?>
<svg width="100%" height="100%" viewBox="0 0 119 43" version="1.1" xmlns="http://www.w3.org/2000/svg" xmlns:xlink="http://www.w3.org/1999/xlink">
    <!-- Generator: Sketch 52.5 (67469) - http://www.bohemiancoding.com/sketch -->
    <title>pic_logo_gray</title>
    <desc>Created with Sketch.</desc>
    <defs>
        <polygon id="path-1" points="0 43 118.689775 43 118.689775 0.255269841 0 0.255269841"></polygon>
    </defs>
    <g id="xwallet_8" stroke="none" stroke-width="1" fill="none" fill-rule="evenodd">
        <g id="红包-拆-个人" transform="translate(-128.000000, -705.000000)">
            <g id="pic_logo_gray-2" transform="translate(128.000000, 705.000000)">
                <g id="logo_gray" transform="translate(0.000000, 0.000000)">
                    <g id="Group-21">
                        <polygon id="Fill-1" fill="#D9DEE8" points="0 43 3.92307692 43 3.92307692 14.3333333 0 14.3333333"></polygon>
                        <g id="Group-20">
                            <path d="M9.57282775,37.4895841 L4.33063699,37.4895841 L4.33063699,32.9745841 L9.57282775,32.9745841 C13.5651746,32.9745841 16.8098162,29.746854 16.8098162,25.7929016 C16.8098162,21.8382667 13.5651746,18.6166794 9.57282775,18.6166794 L1.9877815,18.6166794 L1.9877815,14.096219 L9.57282775,14.096219 C16.0724289,14.096219 21.3613942,19.3435841 21.3613942,25.7929016 C21.3613942,32.242219 16.0724289,37.4895841 9.57282775,37.4895841" id="Fill-2" fill="#D9DEE8"></path>
                            <path d="M92.4866624,42.3279714 L85.6293734,42.3279714 L85.6293734,37.7597333 L92.4866624,37.7597333 C97.7783792,37.7597333 102.082327,33.4822571 102.082327,28.2328444 C102.082327,22.980019 97.7783792,18.712781 92.4866624,18.712781 L83.2631306,18.712781 L83.2631306,14.1418127 L92.4866624,14.1418127 C100.317275,14.1418127 106.688934,20.4648603 106.688934,28.2328444 C106.688934,36.007654 100.317275,42.3279714 92.4866624,42.3279714" id="Fill-4" fill="#D9DEE8"></path>
                            <path d="M35.5362202,42.9998635 C29.2140873,42.9998635 24.0661335,37.8951492 24.0661335,31.6205619 L24.0661335,14.1332127 L28.6190873,14.1332127 L28.6190873,31.6205619 C28.6190873,35.3997841 31.7206538,38.4794032 35.5362202,38.4794032 C39.3517867,38.4794032 42.4485382,35.3997841 42.4485382,31.6205619 L42.4485382,14.095673 L47.0014919,14.095673 L47.0014919,31.6205619 C47.0014919,37.8951492 41.859041,42.9998635 35.5362202,42.9998635" id="Fill-6" fill="#D9DEE8"></path>
                            <mask id="mask-2" fill="white">
                                <use xlink:href="#path-1"></use>
                            </mask>
                            <g id="Clip-9"></g>
                            <polygon id="Fill-8" fill="#D9DEE8" mask="url(#mask-2)" points="0.0687861272 18.6162698 4.0583815 18.6162698 4.0583815 14.0958095 0.0687861272 14.0958095"></polygon>
                            <polygon id="Fill-10" fill="#D9DEE8" mask="url(#mask-2)" points="50.7944277 42.3044921 55.3473815 42.3044921 55.3473815 14.1074127 50.7944277 14.1074127"></polygon>
                            <polygon id="Fill-11" fill="#D9DEE8" mask="url(#mask-2)" points="72.8699595 42.3044921 77.4229133 42.3044921 77.4229133 14.1074127 72.8699595 14.1074127"></polygon>
                            <polygon id="Fill-12" fill="#D9DEE8" mask="url(#mask-2)" points="109.555665 42.3365714 114.107243 42.3365714 114.107243 14.1743016 109.555665 14.1743016"></polygon>
                            <polygon id="Fill-13" fill="#D9DEE8" mask="url(#mask-2)" points="72.740848 42.2526873 52.2267613 17.2887984 55.4514549 14.1054333 75.9669173 39.065227"></polygon>
                            <polygon id="Fill-14" fill="#D9DEE8" mask="url(#mask-2)" points="83.2848671 42.3324762 87.8405723 42.3324762 87.8405723 16.3952857 83.2848671 16.3952857"></polygon>
                            <polygon id="Fill-15" fill="#D9DEE8" mask="url(#mask-2)" points="105.132166 2.0158127 106.906161 0.255542857 111.226617 4.5425746 109.452623 6.30284444"></polygon>
                            <polygon id="Fill-16" fill="#D9DEE8" mask="url(#mask-2)" points="112.558248 9.38444286 114.331554 7.62417302 118.652699 11.9112048 116.878705 13.6714746"></polygon>
                            <polygon id="Fill-17" fill="#D9DEE8" mask="url(#mask-2)" points="110.136632 6.9815619 111.909939 5.22129206 113.685309 6.98224444 111.911314 8.74319683"></polygon>
                            <polygon id="Fill-18" fill="#D9DEE8" mask="url(#mask-2)" points="116.91578 0.292468254 118.689775 2.0527381 114.369318 6.33976984 112.595324 4.5795"></polygon>
                            <polygon id="Fill-19" fill="#D9DEE8" mask="url(#mask-2)" points="109.489699 7.66109841 111.263693 9.42136825 106.943236 13.7084 105.169242 11.9481302"></polygon>
                        </g>
                    </g>
                </g>
            </g>
        </g>
    </g>
</svg>
